<?xml version="1.0" standalone="no"?>
<!DOCTYPE svg PUBLIC "-//W3C//DTD SVG 20010904//EN"
 "http://www.w3.org/TR/2001/REC-SVG-20010904/DTD/svg10.dtd">
<svg version="1.0" xmlns="http://www.w3.org/2000/svg"
 width="700.000000pt" height="700.000000pt" viewBox="0 0 700.000000 700.000000"
 preserveAspectRatio="xMidYMid meet">
<metadata>
Created by potrace 1.14, written by Peter Selinger 2001-2017
</metadata>
<g transform="translate(0.000000,700.000000) scale(0.100000,-0.100000)"
fill="#000000" stroke="none">
<path d="M4156 5038 c-21 -90 -40 -172 -42 -183 -2 -11 -20 -90 -40 -175 -19
-85 -37 -164 -40 -175 -4 -21 -11 -53 -18 -82 -2 -10 -25 -110 -51 -223 -25
-113 -52 -232 -60 -265 -24 -100 -54 -229 -59 -255 -3 -14 -52 -232 -110 -485
-59 -253 -108 -469 -110 -480 -5 -23 -85 -373 -91 -395 -2 -8 -15 -67 -29
-130 -14 -63 -36 -163 -50 -222 -15 -59 -26 -112 -26 -118 0 -7 105 -9 312 -8
l313 3 27 110 c15 61 30 124 32 140 3 17 19 84 35 150 16 66 32 131 35 145 3
14 14 59 25 100 10 41 27 111 37 155 10 44 19 85 21 90 7 29 25 102 28 115 4
20 128 540 165 695 16 66 43 179 60 250 18 72 33 137 35 145 2 8 13 56 25 105
12 50 23 97 25 105 2 8 10 42 19 75 19 76 48 204 51 230 1 11 5 27 8 35 5 13
37 141 52 205 2 11 29 124 59 250 31 127 56 236 56 243 0 9 -72 12 -328 12
l-329 0 -37 -162z"/>
<path d="M4956 5188 c-5 -15 -36 -146 -40 -169 -1 -7 -8 -32 -14 -54 -6 -22
-13 -51 -15 -65 -3 -14 -10 -45 -17 -70 -7 -25 -14 -54 -16 -65 -2 -11 -11
-51 -21 -90 -9 -38 -17 -79 -18 -90 0 -19 10 -19 827 -20 l826 0 16 70 c9 39
19 79 21 90 2 11 23 103 45 205 23 102 44 196 46 210 3 14 7 33 10 43 5 16
-39 17 -821 17 -652 0 -826 -3 -829 -12z"/>
<path d="M1066 5171 c-3 -4 -19 -70 -36 -145 -68 -308 -89 -403 -98 -441 l-9
-40 816 0 c505 1 822 4 832 10 14 9 58 46 173 150 20 17 98 86 162 142 53 45
321 282 358 316 19 16 -32 17 -1087 17 -615 0 -1108 -4 -1111 -9z"/>
<path d="M3389 5137 c-26 -23 -60 -53 -75 -66 -40 -34 -254 -223 -274 -241 -9
-8 -34 -30 -56 -49 -31 -27 -121 -107 -188 -166 -6 -5 -47 -41 -91 -80 -44
-38 -85 -74 -91 -80 -6 -5 -39 -35 -74 -65 -34 -30 -71 -62 -80 -70 -9 -8 -46
-40 -80 -70 -100 -87 -152 -133 -188 -167 -19 -18 -53 -47 -75 -65 -22 -18
-55 -46 -73 -63 -17 -16 -65 -60 -105 -96 -41 -37 -97 -89 -125 -115 -29 -27
-87 -82 -130 -123 -44 -41 -144 -136 -224 -211 -80 -76 -161 -152 -180 -170
-19 -18 -100 -94 -180 -170 -80 -76 -161 -152 -180 -170 -43 -39 -135 -126
-347 -328 -127 -121 -162 -159 -166 -185 -3 -17 -26 -122 -52 -232 -25 -110
-48 -213 -51 -229 -2 -16 -7 -32 -9 -36 -2 -4 -7 -21 -10 -38 l-5 -32 198 0
c193 0 199 1 219 23 11 12 42 41 69 63 27 23 65 57 85 75 20 19 71 66 114 104
43 39 89 79 101 90 58 53 94 85 149 134 33 30 102 93 154 140 52 47 102 93
112 102 26 22 233 215 290 269 46 44 251 236 319 300 19 18 71 67 115 109 78
73 329 310 404 380 40 38 286 269 336 316 146 139 321 303 338 317 10 10 89
84 174 165 86 81 160 151 166 154 8 6 67 243 92 370 3 15 16 74 30 133 14 58
25 108 25 111 0 3 -75 5 -167 5 l-168 0 -46 -43z"/>
<path d="M4636 3848 c-4 -12 -19 -77 -97 -403 -10 -44 -21 -91 -23 -105 -3
-14 -10 -41 -15 -60 -6 -19 -11 -39 -11 -45 0 -10 1584 -14 1594 -4 3 2 7 16
10 29 2 14 12 57 21 95 9 39 18 77 20 85 2 8 24 104 49 213 25 109 46 200 46
203 0 2 -358 4 -795 4 -628 0 -796 -3 -799 -12z"/>
<path d="M4310 2465 c-5 -6 -11 -22 -14 -35 -2 -14 -12 -56 -22 -95 -9 -38
-18 -79 -20 -90 -1 -11 -3 -20 -4 -20 -1 0 -3 -7 -5 -15 -1 -8 -21 -91 -44
-183 -22 -93 -41 -173 -41 -178 0 -5 329 -9 839 -9 l839 0 12 48 c6 26 14 58
16 72 3 14 14 61 24 105 10 44 21 91 24 105 3 14 19 86 35 160 17 74 31 137
31 140 0 10 -1662 5 -1670 -5z"/>
<path d="M1522 2446 c-9 -5 -19 -12 -22 -15 -3 -3 -28 -26 -55 -51 -112 -100
-230 -206 -245 -220 -9 -8 -54 -49 -100 -90 -107 -95 -151 -135 -220 -198
l-55 -51 1096 -1 1096 0 11 43 c14 56 33 137 38 164 2 13 24 112 49 220 25
109 45 200 45 203 0 9 -1621 5 -1638 -4z"/>
</g>
</svg>
